<svg width="1095" height="485" viewBox="0 0 1095 485" fill="none" xmlns="http://www.w3.org/2000/svg">
<g clip-path="url(#clip0)">
<path d="M960.756 94.9343C969.166 103.325 975.894 111.716 984.304 118.429C989.35 123.464 996.078 128.498 1001.12 133.533C1006.17 138.567 1012.9 141.924 1017.94 145.28C1041.49 160.384 1063.36 170.453 1075.13 182.201C1078.5 185.557 1081.86 187.235 1083.54 190.592C1085.23 193.948 1086.91 195.626 1088.59 197.304C1091.95 200.661 1093.64 202.339 1093.64 202.339L1088.59 205.696C1088.59 205.696 1086.91 204.017 1085.23 200.661C1083.54 198.983 1081.86 197.305 1080.18 195.626C1078.5 193.948 1075.13 192.27 1071.77 188.913C1063.36 182.201 1051.59 175.488 1038.13 168.775V170.453C1039.81 178.844 1038.13 187.235 1039.81 195.626C1041.49 204.017 1046.54 212.408 1048.22 219.121C1049.9 222.478 1049.9 225.834 1049.9 227.512C1049.9 229.19 1049.9 230.869 1049.9 230.869H1048.22C1048.22 230.869 1048.22 229.19 1048.22 227.512C1048.22 225.834 1048.22 222.478 1046.54 219.121C1044.86 212.408 1038.13 204.017 1036.45 195.626C1034.77 185.557 1034.77 175.488 1033.08 168.775C1033.08 165.419 1031.4 163.74 1031.4 162.062C1026.35 158.706 1019.63 155.349 1012.9 151.993C1006.17 148.637 999.442 143.602 994.396 140.246C992.714 140.246 992.714 138.567 991.032 136.889C992.714 146.958 991.032 160.384 987.668 172.131C984.304 185.557 987.668 197.305 991.032 207.374C994.396 217.443 996.078 224.156 996.078 224.156H994.396C994.396 224.156 992.714 217.443 989.35 209.052C985.986 198.983 980.94 185.557 984.304 172.131C987.668 158.706 989.35 145.28 985.986 136.889C984.304 133.533 984.304 131.855 982.622 130.176C980.94 128.498 979.258 126.82 977.576 125.142C965.802 115.073 952.346 103.325 940.572 91.5779C932.161 83.1869 922.069 74.7959 910.295 66.4048C910.295 68.083 911.977 71.4394 911.977 74.7959C913.659 91.5779 915.341 115.073 917.023 136.889C918.705 148.637 915.341 160.384 915.341 170.453C915.341 180.523 917.023 190.592 922.069 197.304C927.115 204.017 932.161 209.052 935.525 214.087C937.207 219.121 937.207 222.478 937.207 222.478H935.525C935.525 222.478 935.525 219.121 933.843 215.765C932.161 210.73 927.115 207.374 920.387 200.661C913.659 193.948 911.977 182.201 911.977 172.131C911.977 160.384 913.659 150.315 913.659 138.567C906.931 116.751 905.249 93.2561 901.885 76.4741C901.885 71.4394 900.203 68.083 900.203 63.0484C883.383 52.9792 866.562 46.2664 846.378 42.91C826.194 39.5536 806.009 34.519 787.507 29.4844C789.189 31.1626 790.871 34.519 792.553 37.8754C795.917 46.2664 797.599 54.6574 800.963 61.3702C804.327 69.7612 809.373 69.7612 809.373 71.4394V73.1177C809.373 73.1177 807.691 73.1176 806.009 71.4394C804.327 69.7612 800.963 68.0831 799.281 64.7266C794.235 59.692 792.553 49.6228 789.189 41.2318C785.825 36.1972 782.461 32.8408 777.415 27.8062C763.959 24.4498 752.184 21.0934 740.41 19.4152C723.59 16.0588 708.452 16.0588 693.313 16.0588C676.493 16.0588 661.355 17.737 647.899 17.737C636.125 17.737 624.35 17.737 614.258 17.737C615.94 21.0934 617.622 22.7716 619.304 26.128C620.986 26.128 620.986 26.128 622.668 26.128C642.853 24.4498 669.765 22.7716 693.313 34.519C721.908 47.9446 748.82 64.7266 772.369 78.1522C774.051 78.1522 774.051 78.1522 775.733 78.1522C784.143 78.1522 797.599 76.4741 811.055 76.4741C824.512 76.4741 837.968 78.1523 846.378 81.5087C856.47 84.8651 861.516 86.5433 861.516 86.5433V88.2215C861.516 88.2215 854.788 86.5433 846.378 84.8651C836.286 83.1869 824.512 81.5087 811.055 81.5087C800.963 81.5087 790.871 83.1869 782.461 84.8651C789.189 88.2215 795.917 93.2561 802.645 96.6125C809.373 99.9689 816.101 103.325 822.83 106.682C829.558 110.038 834.604 111.716 839.65 113.394C848.06 116.751 854.788 118.429 854.788 118.429L851.424 126.82C851.424 126.82 846.378 125.142 836.286 123.464C831.24 121.785 826.194 120.107 819.465 116.751C812.737 115.073 806.009 111.716 797.599 108.36C772.369 96.6125 742.092 79.8305 710.134 64.7266C713.498 73.1177 718.544 81.5087 721.908 91.5779C726.954 105.003 732 118.429 737.046 126.82C740.41 131.855 742.092 135.211 745.456 136.889C748.82 138.567 748.82 140.246 748.82 140.246L747.138 141.924C747.138 141.924 745.456 140.246 743.774 138.567C742.092 136.889 738.728 133.533 735.364 128.498C728.636 120.107 723.59 106.682 718.544 93.2561C713.498 79.8305 708.452 68.083 701.724 61.3702C696.677 59.692 693.313 58.0138 688.267 56.3356C671.447 49.6228 654.627 51.301 636.124 52.9792C642.853 64.7266 649.581 78.1523 657.991 89.8997C668.083 106.682 683.221 120.107 698.36 136.889C700.042 136.889 701.724 138.567 703.406 138.567C715.18 141.924 733.682 143.602 750.502 141.924C767.323 141.924 785.825 141.924 799.281 146.958C806.009 148.637 811.055 151.993 812.737 155.349C816.101 158.706 817.783 158.706 817.783 158.706L816.101 160.384C816.101 160.384 814.419 158.706 811.055 157.028C807.691 155.349 804.327 151.993 797.599 150.315C785.825 145.28 767.323 146.958 750.502 146.958C735.364 146.958 718.544 146.958 706.77 145.28C718.544 158.706 728.636 173.81 738.728 188.913C740.41 190.592 742.092 190.592 743.774 192.27C757.23 197.304 777.415 197.304 797.599 200.661C817.783 204.017 836.286 212.408 849.742 219.121C856.47 222.478 861.516 227.512 864.88 230.869C868.244 234.225 868.244 237.581 868.244 237.581H866.562C866.562 237.581 866.562 235.903 863.198 232.547C859.834 229.19 856.47 225.834 849.742 222.478C836.286 215.765 817.784 209.052 799.281 205.696C780.779 204.017 762.277 204.017 747.138 200.661C762.277 224.156 774.051 245.972 785.825 264.433C795.917 279.536 804.327 292.962 812.737 301.353C819.466 309.744 824.512 314.779 824.512 314.779L819.465 319.813C819.465 319.813 814.419 314.779 807.691 306.388C799.281 297.997 789.189 286.249 777.415 271.145C772.369 264.433 765.641 256.042 758.913 245.972C755.548 256.042 747.138 267.789 747.138 279.536C745.456 292.962 755.548 304.709 760.595 314.779C762.277 319.813 763.959 323.17 765.641 326.526C765.641 329.882 767.323 331.561 767.323 331.561H765.641C765.641 331.561 765.641 329.882 763.959 326.526C763.959 323.17 762.277 319.813 758.913 314.779C755.548 309.744 752.184 304.709 750.502 299.675C748.82 294.64 743.774 286.249 745.456 277.858C745.456 262.754 753.866 249.329 757.231 239.26C757.231 237.581 757.231 237.581 757.231 235.903C740.41 210.73 720.226 182.201 696.677 158.706C679.857 143.602 659.673 125.142 644.535 106.682C636.124 108.36 634.442 110.038 632.76 110.038C629.396 113.394 626.032 115.073 620.986 116.751C617.622 118.429 612.576 120.107 610.894 125.142C607.53 128.498 609.212 133.533 609.212 138.567C609.212 143.602 607.53 148.637 604.166 151.993C602.484 155.349 600.802 157.028 600.802 160.384C600.802 162.062 599.12 163.74 599.12 163.74H597.438C597.438 163.74 597.438 158.706 602.484 151.993C604.166 148.637 605.848 145.28 605.848 140.246C605.848 136.889 604.166 130.176 607.53 125.142C609.212 120.107 615.94 116.751 619.304 113.394C622.668 111.716 627.714 108.36 629.396 106.682C632.76 103.325 632.76 101.647 632.76 99.9689C620.986 84.865 612.576 69.7612 602.484 58.0138C599.12 58.0138 595.756 58.0138 594.074 59.692C585.664 59.692 577.254 59.692 568.843 58.0138C568.843 86.5433 570.525 116.751 575.571 148.637C577.253 157.028 578.936 163.74 580.618 172.131C582.3 172.131 585.664 173.81 589.028 173.81C600.802 175.488 617.622 173.81 634.442 173.81C642.853 173.81 651.263 173.81 657.991 175.488C661.355 175.488 666.401 177.166 669.765 180.522C673.129 183.879 674.811 185.557 676.493 188.913C679.857 193.948 681.539 198.983 684.903 198.983C688.267 198.983 689.949 198.983 689.949 198.983V200.661C689.949 200.661 688.267 200.661 683.221 200.661C678.175 200.661 674.811 195.626 671.447 190.592C666.401 177.166 647.899 178.844 632.76 178.844C617.622 178.844 600.802 180.522 587.346 180.522C585.664 180.522 582.3 180.523 580.618 178.844C583.982 192.27 589.028 205.696 592.392 219.121C594.074 220.799 595.756 222.478 599.12 225.834C607.53 232.547 620.986 240.938 632.76 251.007C644.535 259.398 656.309 271.145 661.355 282.893C666.401 294.64 663.037 303.031 664.719 303.031H663.037C663.037 303.031 664.719 294.64 659.673 284.571C656.309 274.502 644.535 264.433 631.078 256.042C619.304 247.651 605.848 240.938 595.756 232.547C600.802 245.972 604.166 261.076 607.53 272.824C610.894 281.215 610.894 289.606 612.576 296.318C614.258 303.031 614.258 309.744 614.258 314.779C614.258 324.848 615.94 331.561 615.94 331.561H609.212C609.212 331.561 609.212 326.526 607.53 316.457C607.53 311.422 605.848 306.388 604.166 299.675C602.484 292.962 600.802 286.249 597.438 277.858C587.346 244.294 563.797 204.017 553.705 157.028C552.023 145.28 550.341 135.211 546.977 123.464C546.977 126.82 546.977 128.498 545.295 130.176C541.931 141.924 536.885 153.671 536.885 162.062C536.885 165.419 536.885 170.453 536.885 172.131C536.885 173.81 538.567 175.488 538.567 175.488L536.885 177.166C536.885 177.166 536.885 175.488 535.203 173.81C533.521 170.453 533.521 167.097 533.521 162.062C533.521 151.993 538.567 141.924 540.249 130.176C541.931 121.785 543.613 113.394 543.613 106.682C543.613 76.4741 540.249 54.6574 538.567 36.1972C538.567 34.519 536.885 32.8408 535.203 32.8408C535.203 32.8408 535.203 31.1626 533.521 31.1626H531.839C530.157 32.8408 528.475 34.519 526.793 36.1972C526.793 39.5536 525.111 44.5882 525.111 47.9446C525.111 56.3356 523.429 66.4048 523.429 76.4741C521.747 98.2907 520.065 125.142 518.383 153.671C516.701 172.131 516.701 190.592 513.336 210.73C515.018 214.087 516.7 217.443 520.065 219.121C528.475 229.19 545.295 235.903 557.069 252.685C567.161 267.789 577.254 281.215 582.3 294.64C585.664 301.353 585.664 306.388 587.346 309.744C589.028 313.1 589.028 316.457 589.028 316.457H587.346C587.346 316.457 587.346 314.779 585.664 311.422C583.982 308.066 583.982 303.031 580.618 296.318C575.572 284.571 565.479 269.467 555.387 256.042C545.295 242.616 528.475 235.903 518.383 225.834C516.701 224.156 515.018 222.478 513.336 220.799C511.654 229.19 509.972 235.903 508.29 244.294C508.29 247.651 504.926 252.685 504.926 256.042C503.244 259.398 503.244 262.754 499.88 267.789C501.562 269.467 501.562 269.467 503.244 271.145C506.608 274.502 511.654 276.18 516.701 279.536C521.747 282.893 526.793 287.927 531.839 292.962C540.249 303.031 545.295 316.457 548.659 324.848C552.023 334.917 552.023 341.63 552.023 341.63H550.341C550.341 341.63 550.341 334.917 546.977 326.526C543.613 318.135 536.885 306.388 528.475 296.318C525.111 291.284 520.065 286.249 515.018 284.571C509.972 281.215 504.926 279.536 499.88 276.18C498.198 274.502 496.516 274.502 496.516 272.824C491.47 277.858 486.424 281.215 483.06 284.571C476.332 289.606 472.968 292.962 467.922 297.997C464.558 301.353 464.558 306.388 462.876 313.1C462.876 318.135 464.558 321.491 467.922 324.848C471.286 328.204 478.014 331.561 484.742 336.595C496.516 344.986 503.244 356.734 508.29 368.481C516.701 391.976 515.018 410.436 515.018 423.862C515.018 437.287 515.018 444 515.018 444H508.29C508.29 444 508.29 437.287 508.29 423.862C508.29 410.436 506.608 391.976 499.88 373.516C489.788 361.768 483.06 353.377 472.968 346.664C467.922 343.308 462.876 339.952 456.148 336.595C452.783 334.917 451.101 331.561 449.419 329.882C449.419 331.561 449.419 333.239 449.419 336.595C449.419 341.63 449.419 348.343 447.737 356.734C446.055 363.446 442.691 371.837 437.645 376.872C424.189 386.941 410.733 391.976 404.005 400.367C397.277 408.758 398.959 417.149 398.959 417.149H397.277C397.277 417.149 395.594 408.758 402.323 398.689C409.051 388.619 424.189 383.585 435.963 373.516C446.055 363.446 444.373 346.664 446.055 336.595C446.055 331.561 446.055 326.526 447.737 323.17V321.491C447.737 319.813 446.055 316.457 447.737 314.779C447.737 306.388 447.737 296.318 454.465 289.606C459.512 282.893 466.24 276.18 471.286 272.824C476.332 267.789 483.06 262.754 484.742 259.398C486.424 257.72 486.424 254.363 488.106 251.007C489.788 247.651 489.788 244.294 491.47 240.938C496.516 219.121 496.516 195.626 498.198 173.81C491.47 183.879 478.014 190.592 462.876 193.948C447.737 198.983 432.599 198.983 422.507 202.339C417.461 204.017 412.415 205.696 410.733 207.374C409.051 209.052 409.051 210.73 409.051 210.73H407.369C407.369 210.73 407.369 207.374 410.733 205.696C414.097 202.339 417.461 200.661 424.189 198.983C435.963 195.626 451.101 195.626 464.558 190.592C478.014 185.557 491.47 177.166 496.516 168.775C498.198 165.419 499.88 163.74 499.88 160.384V155.349C499.88 126.82 499.88 101.647 499.88 78.1522V69.7612C491.47 71.4394 489.788 74.7958 486.424 76.4741C478.014 84.8651 469.604 93.2561 459.512 101.647C454.465 105.003 449.419 110.038 444.373 115.073C437.645 118.429 432.599 123.464 425.871 126.82C398.959 141.924 367 143.602 340.088 151.993C329.995 153.671 319.903 158.706 311.493 162.062C311.493 163.74 311.493 165.419 311.493 167.097C311.493 172.131 311.493 177.166 311.493 182.201C311.493 187.235 311.493 193.948 308.129 198.983C304.765 210.73 299.719 220.799 294.673 229.19C289.627 235.903 286.263 240.938 286.263 240.938L284.581 239.26C284.581 239.26 287.945 234.225 292.991 225.834C296.355 217.443 303.083 207.374 304.765 195.626C306.447 190.592 306.447 183.879 306.447 178.844C306.447 173.81 306.447 168.775 306.447 163.74C306.447 162.062 306.447 162.062 306.447 160.384C304.765 160.384 304.765 162.062 303.083 162.062C291.309 168.775 279.535 177.166 269.442 187.235C249.258 204.017 229.074 222.478 207.207 232.547C187.023 240.938 170.203 249.329 163.475 257.72C155.065 266.111 158.429 272.824 158.429 272.824L151.7 277.858C151.7 277.858 151.7 276.18 151.7 271.145C151.7 267.789 153.383 261.076 158.429 256.042C166.839 244.294 185.341 235.903 203.843 225.834C217.3 219.121 230.756 207.374 244.212 193.948C239.166 195.626 235.802 197.304 230.756 197.304C218.982 197.304 208.889 192.27 200.479 192.27C197.115 192.27 193.751 192.27 190.387 192.27C188.705 192.27 187.023 193.948 187.023 193.948L185.341 192.27C185.341 192.27 187.023 192.27 188.705 190.592C192.069 190.592 195.433 188.914 198.797 190.592C207.207 190.592 218.982 195.626 229.074 193.948C239.166 192.27 249.258 188.913 255.986 183.879L257.668 182.201C257.668 182.201 257.668 182.201 259.35 182.201C269.442 172.131 279.535 162.062 292.991 153.671C304.765 145.28 319.903 138.567 335.041 133.533C360.272 125.142 385.502 120.107 405.687 110.038C404.005 110.038 402.323 110.038 402.323 108.36C397.277 108.36 392.23 106.682 385.502 106.682C373.728 106.682 363.636 105.003 355.226 103.325C346.816 99.9689 343.452 96.6125 341.77 96.6125L343.452 93.2561C343.452 93.2561 348.498 96.6125 355.226 98.2907C363.636 99.9689 373.728 101.647 385.502 101.647C390.548 101.647 395.594 101.647 402.323 101.647C405.687 101.647 409.051 103.325 414.097 103.325C419.143 99.9689 424.189 96.6125 429.235 93.2561C434.281 89.8997 437.645 84.8651 442.691 81.5087C451.101 73.1177 459.512 64.7266 466.24 56.3356C471.286 49.6228 476.332 44.5882 481.378 39.5536C452.783 41.2318 422.507 36.1972 392.23 32.8408C388.866 32.8408 383.82 32.8408 380.456 32.8408C372.046 36.1972 363.636 44.5882 353.544 52.9792C345.134 61.3702 336.724 71.4394 331.677 78.1522C324.949 84.8651 321.585 89.8997 321.585 89.8997L319.903 88.2215C319.903 88.2215 323.267 83.1869 328.313 76.4741C333.359 68.083 341.77 59.692 350.18 49.6228C356.908 42.91 361.954 37.8754 368.682 32.8408C358.59 32.8408 348.498 32.8408 340.088 34.519C324.949 36.1972 309.811 42.91 296.355 51.301C294.673 59.692 292.991 71.4395 291.309 83.1869C287.945 96.6125 282.899 111.716 277.853 120.107C274.488 125.142 272.806 128.498 269.442 130.176C267.76 131.855 266.078 133.533 266.078 133.533L264.396 131.855C264.396 131.855 269.442 126.82 274.489 118.429C279.535 110.038 284.581 94.9343 286.263 81.5087C287.945 73.1177 287.945 63.0484 289.627 54.6574C282.899 59.692 276.171 64.7266 269.442 68.083C261.032 73.1176 252.622 78.1523 244.212 83.1869C239.166 84.8651 235.802 88.2215 230.756 89.8997L217.3 93.2561C208.889 94.9343 198.797 98.2907 190.387 99.9689C185.341 101.647 180.295 101.647 176.931 103.325C173.567 105.003 170.203 108.36 166.839 110.038C163.475 113.394 160.111 116.751 156.747 121.785C151.7 130.176 144.972 140.246 138.244 148.637C134.88 153.671 131.516 157.028 128.152 162.062C124.788 165.419 119.742 170.453 116.378 173.81C109.65 182.201 101.24 187.235 94.5115 192.27C87.7834 197.304 82.7373 202.339 79.3733 205.696C76.0092 207.374 74.3272 210.73 74.3272 210.73H72.6452C72.6452 210.73 74.3272 207.374 76.0092 204.017C79.3733 200.661 84.4194 195.626 91.1475 188.913C97.8756 183.879 106.286 178.844 113.014 170.453C116.378 167.097 119.742 162.062 124.788 158.706C128.152 153.671 131.516 150.315 134.88 145.28C141.608 136.889 146.654 126.82 153.383 118.429C156.747 113.394 158.429 110.038 163.475 106.682C138.244 111.716 116.378 116.751 96.1936 120.107C81.0553 121.785 69.2811 125.142 57.5069 126.82C45.7327 130.176 37.3226 131.855 28.9124 135.211C20.5023 136.889 15.4562 138.567 12.0922 141.924C7.04608 143.602 5.36406 143.602 5.36406 143.602L2 138.567C2 138.567 3.68203 136.889 8.72811 135.211C12.0922 131.855 18.8203 130.176 27.2304 126.82C35.6406 123.464 44.0507 121.785 55.8249 118.429C67.5991 115.073 79.3733 111.716 92.8295 108.36C121.424 101.647 151.7 94.9343 187.023 84.8651C195.433 83.1869 203.843 79.8305 212.253 78.1522L225.71 74.7959C229.074 73.1177 234.12 71.4394 237.484 69.7612C245.894 66.4048 252.622 61.3702 259.35 56.3356C266.078 51.301 274.489 44.5882 281.217 39.5536L292.991 31.1626L299.719 26.128L306.447 22.7716C311.493 21.0934 316.539 17.737 321.585 16.0588L336.724 12.7024C356.908 9.34602 375.41 7.66782 393.912 9.34602C429.235 9.34602 462.876 14.3806 486.424 9.34602C493.152 7.66782 496.516 5.98962 499.88 4.31142C499.88 2.63322 499.88 0.95502 499.88 -0.723181C489.788 -2.40138 476.332 -0.723183 461.194 0.955018C439.327 4.31142 414.097 4.31142 387.184 5.98962C373.728 5.98962 358.59 5.98962 345.134 7.66782C338.406 7.66782 331.677 7.66782 324.949 9.34602L304.765 12.7024C291.309 14.3806 276.171 16.0588 261.032 16.0588C245.894 16.0588 232.438 16.0588 218.982 14.3806C207.207 12.7024 195.433 12.7024 185.341 12.7024C183.659 12.7024 181.977 12.7024 180.295 14.3806C166.839 17.737 153.383 29.4844 138.244 36.1972C123.106 44.5882 106.286 49.6228 92.8295 52.9792C86.1014 54.6574 81.0553 56.3356 77.6913 58.0138C74.3272 59.692 72.6452 59.692 72.6452 59.692L70.9631 58.0138C70.9631 58.0138 72.6452 56.3356 76.0092 54.6574C81.0553 54.6574 86.1014 52.9792 92.8295 51.301C104.604 47.9446 119.742 41.2318 134.88 32.8408C148.336 26.128 158.429 17.737 170.203 11.0242C161.793 11.0242 151.7 11.0242 143.29 11.0242C123.106 12.7024 104.604 17.737 94.5115 22.7716C87.7834 26.128 84.4194 27.8062 82.7373 29.4844C79.3733 31.1626 77.6913 32.8408 77.6913 32.8408L72.6452 26.128C72.6452 26.128 74.3272 24.4498 77.6913 22.7716C81.0553 21.0934 84.4194 17.737 91.1475 14.3806C102.922 9.34602 119.742 4.31142 141.608 0.955018C163.475 -2.40138 188.705 -0.723181 217.3 -0.723181C230.756 -0.723181 244.212 -0.723181 257.668 -0.723181C271.124 -2.40138 284.581 -4.07958 299.719 -7.43599L321.585 -12.4706C328.313 -14.1488 336.724 -14.1488 343.452 -15.827C358.59 -17.5052 372.046 -19.1834 385.502 -19.1834C412.415 -22.5398 435.963 -24.218 457.83 -29.2526C479.696 -32.609 499.88 -35.9654 515.018 -32.609C516.701 -32.609 518.383 -32.609 520.065 -30.9308C521.747 -29.2526 530.157 -25.8962 541.931 -25.8962C548.659 -25.8962 548.659 -27.5744 557.069 -27.5744C572.207 -27.5744 575.572 -24.218 580.618 -27.5744C580.618 -27.5744 580.618 -27.5744 582.3 -27.5744C595.756 -25.8962 614.258 -27.5744 637.807 -32.609C649.581 -35.9654 663.037 -37.6436 678.175 -41C693.313 -41 710.134 -41 726.954 -39.3218C760.595 -35.9654 792.553 -24.218 824.512 -19.1834C839.65 -17.5052 856.47 -19.1834 874.972 -17.5052C880.019 -17.5052 883.383 -15.827 888.429 -15.827H893.475L900.203 -12.4706C903.567 -10.7924 908.613 -9.11419 911.977 -7.43599C915.341 -5.75778 918.705 -2.40138 922.069 -0.723181C923.751 0.95502 925.433 0.955018 925.433 0.955018C925.433 0.955018 925.433 0.955018 927.115 0.955018C932.161 -0.723183 938.889 -4.07958 945.618 -7.43599C954.028 -9.11419 962.438 -15.827 972.53 -19.1834C977.576 -20.8616 984.304 -20.8616 989.35 -19.1834C994.396 -17.5052 999.442 -14.1488 1004.49 -12.4706C1016.26 -9.11419 1028.04 -7.43598 1038.13 -4.07958C1043.18 -2.40138 1048.22 -0.723184 1053.27 2.63322C1056.63 4.31142 1061.68 5.98962 1065.04 9.34602C1071.77 14.3806 1078.5 17.737 1081.86 19.4152C1086.91 21.0934 1088.59 21.0934 1088.59 21.0934V22.7716C1088.59 22.7716 1085.23 22.7716 1080.18 21.0934C1075.13 19.4152 1068.41 16.0588 1061.68 12.7024C1058.31 11.0242 1054.95 7.66782 1049.9 5.98962C1044.86 4.31142 1041.49 2.63322 1036.45 0.955018C1031.4 -0.723183 1026.35 -2.40138 1021.31 -2.40138L1012.9 -7.43599L1004.49 -10.7924C999.442 -12.4706 994.396 -15.827 989.35 -15.827C984.304 -17.5052 979.258 -17.5052 974.212 -15.827C965.802 -12.4706 955.71 -5.75778 948.982 -4.07958C942.254 -0.723182 937.207 0.955016 932.161 2.63322C935.525 4.31142 938.89 5.98962 942.254 9.34602C948.982 12.7024 955.71 16.0588 960.756 21.0934C969.166 26.128 977.576 29.4844 985.986 32.8408C991.032 32.8408 996.078 31.1626 1001.12 29.4844C1004.49 27.8062 1009.53 27.8062 1012.9 26.128C1017.94 26.128 1021.31 26.128 1024.67 24.4498C1031.4 21.0934 1041.49 19.4152 1048.22 22.7716C1056.63 24.4498 1063.36 27.8062 1070.09 27.8062V29.4844C1061.68 29.4844 1053.27 27.8062 1046.54 26.128C1038.13 24.4498 1031.4 26.128 1024.67 29.4844C1021.31 31.1626 1016.26 32.8408 1012.9 32.8408C1009.53 32.8408 1004.49 34.519 1001.12 36.1972C999.443 36.1972 997.76 36.1972 996.078 37.8754C1019.63 46.2664 1039.81 54.6574 1051.59 63.0484C1058.31 66.4048 1063.36 71.4395 1065.04 73.1177C1068.41 76.4741 1070.09 76.4741 1070.09 76.4741L1065.04 81.5087C1065.04 81.5087 1063.36 79.8305 1060 78.1522C1061.68 76.474 1056.63 73.1176 1049.9 69.7612C1043.18 66.4048 1034.77 61.3702 1024.67 58.0138C1024.67 59.692 1026.35 63.0484 1028.04 64.7266C1029.72 68.0831 1031.4 73.1177 1034.77 74.7959C1038.13 76.4741 1039.81 78.1522 1039.81 78.1522V79.8304C1039.81 79.8304 1036.45 79.8305 1033.08 76.4741C1029.72 74.7958 1026.35 69.7612 1024.67 66.4048C1022.99 63.0484 1019.63 58.0138 1017.94 54.6574C1011.22 52.9792 1002.81 49.6228 994.396 47.9446C982.622 44.5882 969.166 39.5536 955.71 32.8408C952.346 31.1626 947.3 29.4844 943.936 26.128V29.4844C943.936 36.1972 943.936 46.2664 942.254 54.6574C942.254 56.3356 942.254 58.0138 942.254 61.3702C942.254 63.0484 943.936 64.7266 945.618 66.4048C948.982 69.7612 950.664 73.1177 954.028 74.7959C959.074 79.8305 959.074 84.8651 959.074 84.8651H957.392C957.392 84.8651 957.392 79.8305 952.346 76.4741C948.982 74.7958 945.618 71.4394 943.936 68.083C942.254 66.4048 940.572 64.7266 940.572 61.3702C940.572 58.0138 940.572 56.3356 940.572 52.9792C942.254 42.91 940.572 34.519 940.572 27.8062C940.572 24.4498 940.572 21.0934 940.572 19.4152C933.843 16.0588 927.115 11.0242 920.387 7.66782L910.295 2.63322L900.203 -0.723181L895.157 -2.40138H890.111C886.747 -2.40138 881.701 -2.40138 878.336 -2.40138C861.516 -2.40138 844.696 -0.723181 827.876 -0.723181C792.553 -4.07958 760.595 -14.1488 730.318 -15.827C711.816 -17.5052 693.313 -14.1488 676.493 -10.7924C683.221 -10.7924 689.949 -10.7924 696.677 -10.7924C705.088 -10.7924 713.498 -10.7924 721.908 -9.11419C730.318 -7.43599 740.41 -7.43598 748.82 -4.07958C784.143 4.31142 819.466 17.737 854.788 24.4498C864.88 27.8062 873.29 27.8062 883.383 32.8408L896.839 37.8754L910.295 46.2664C918.705 51.301 925.433 58.0138 933.843 63.0484C940.572 69.7612 947.3 74.7959 954.028 81.5087C955.71 83.1869 957.392 86.5433 960.756 88.2215C964.12 88.2215 967.484 88.2215 970.848 88.2215C977.576 88.2215 984.304 86.5433 991.032 88.2215C1004.49 91.5779 1014.58 101.647 1026.35 105.003C1031.4 110.038 1044.86 110.038 1058.31 113.394C1071.77 116.751 1083.54 123.464 1095.32 128.498V131.855C1083.54 126.82 1070.09 120.107 1058.31 116.751C1044.86 113.394 1031.4 115.073 1017.94 110.038C1004.49 106.682 994.396 96.6125 982.622 94.9343C975.894 93.2561 967.484 93.2561 960.756 94.9343Z" fill="#342E19"/>
</g>
<defs>
<clipPath id="clip0">
<rect width="1095" height="485" fill="white"/>
</clipPath>
</defs>
</svg>
